<svg width="50" height="50" viewBox="0 0 50 50" fill="none" xmlns="http://www.w3.org/2000/svg">
<path d="M25 4.6875C18.4814 4.6875 13.2812 9.93245 13.2812 16.4062C13.2812 20.9025 15.8162 24.8006 19.5312 26.7659V40.3727C19.5312 41.2313 19.9219 42.0369 20.5933 42.57L23.4212 44.8039C23.8485 45.1457 24.3652 45.3125 24.8779 45.3125C25.4517 45.3125 26.0254 45.1009 26.4771 44.6859L31.5755 39.9577C31.9539 39.6077 32.0638 39.0544 31.8522 38.5864L30.4687 35.5387V35.4655L32.3486 33.134C32.9102 32.4341 32.9427 31.4412 32.4178 30.7088L30.4687 27.9826V26.7659C34.1838 24.8006 36.7187 20.9025 36.7187 16.4062C36.7187 9.93245 31.5186 4.6875 25 4.6875ZM25 7.8125C29.7363 7.8125 33.5937 11.6699 33.5937 16.4062C33.5937 19.5964 31.8359 22.5098 29.008 24.0031L27.3437 24.8861V28.9836L29.3823 31.8359L27.3437 34.3628V36.2142L28.4302 38.6108L24.8413 41.9434L22.8719 40.3849C22.7336 40.2791 22.6562 40.1164 22.6562 39.9414V24.882L20.992 24.0031C18.1641 22.5098 16.4062 19.5964 16.4062 16.4062C16.4062 11.6699 20.2637 7.8125 25 7.8125ZM25 10.9375C23.2747 10.9375 21.875 12.3372 21.875 14.0625C21.875 15.7878 23.2747 17.1875 25 17.1875C26.7253 17.1875 28.125 15.7878 28.125 14.0625C28.125 12.3372 26.7253 10.9375 25 10.9375Z" fill="#7A7A7A"/>
</svg>
